<?xml version="1.0" standalone="no"?>
<!DOCTYPE svg PUBLIC "-//W3C//DTD SVG 20010904//EN"
 "http://www.w3.org/TR/2001/REC-SVG-20010904/DTD/svg10.dtd">
<svg version="1.0" xmlns="http://www.w3.org/2000/svg"
 width="710.000000pt" height="229.000000pt" viewBox="0 0 710.000000 229.000000"
 preserveAspectRatio="xMidYMid meet">
<metadata>
Created by potrace 1.14, written by Peter Selinger 2001-2017
</metadata>
<g transform="translate(0.000000,229.000000) scale(0.100000,-0.100000)"
fill="#000000" stroke="none">
<path d="M2800 2279 c-179 -11 -445 -73 -492 -116 -24 -21 -23 -56 2 -78 20
-18 24 -17 138 18 269 85 577 96 842 31 189 -46 326 -129 346 -209 10 -41 -5
-96 -36 -127 -24 -23 -37 -28 -79 -28 -38 0 -56 -5 -71 -20 -44 -44 -8 -90 70
-90 28 0 67 7 87 15 42 18 39 19 73 -43 24 -46 45 -59 65 -44 15 10 155 193
155 202 0 17 -33 33 -88 44 l-57 12 -7 57 c-15 120 -75 191 -220 261 -191 93
-435 131 -728 115z"/>
<path d="M585 2215 c-16 -15 -25 -36 -25 -55 0 -38 -4 -38 -163 -4 -165 34
-231 24 -312 -47 -72 -63 -100 -161 -73 -251 15 -52 86 -130 141 -156 46 -22
256 -68 355 -78 57 -6 61 -9 67 -35 19 -84 134 -200 228 -229 l37 -12 0 -607
c0 -600 0 -609 21 -635 28 -36 80 -36 108 0 21 26 21 35 21 634 l0 608 53 18
c73 26 177 129 201 200 l17 52 62 6 c104 12 294 54 344 76 101 45 157 127 157
230 0 100 -46 171 -139 218 -69 34 -118 36 -254 8 -160 -33 -161 -33 -161 4 0
33 -38 80 -64 80 -49 0 -86 -43 -86 -99 0 -25 -4 -29 -37 -35 -49 -8 -301 -8
-341 0 -27 5 -31 11 -37 50 -4 30 -14 50 -32 64 -34 26 -59 25 -88 -5z m-172
-209 c173 -35 307 -48 502 -48 195 0 329 13 502 48 136 27 174 29 206 13 89
-46 71 -160 -31 -192 -157 -50 -450 -87 -685 -87 -224 0 -618 54 -699 96 -37
19 -58 52 -58 92 0 43 14 68 48 86 38 21 75 20 215 -8z m678 -424 c-55 -101
-230 -122 -319 -39 -59 55 -59 55 143 55 169 0 184 -1 176 -16z"/>
<path d="M5585 2191 c-135 -25 -248 -143 -290 -302 -22 -83 -22 -1439 0 -1524
32 -120 114 -228 211 -276 l49 -24 610 -3 c681 -3 667 -4 760 66 57 44 105
110 137 190 21 52 22 73 23 244 0 167 -2 189 -18 205 -17 17 -65 18 -770 23
l-752 5 -3 94 c-3 102 1 111 50 111 15 0 68 14 118 30 120 40 179 39 295 -2
126 -44 231 -44 363 1 115 39 180 40 277 6 140 -50 265 -53 376 -8 73 29 94
120 40 174 -34 34 -43 35 -102 13 -71 -26 -171 -21 -259 12 -66 25 -88 29
-185 29 -96 0 -119 -4 -185 -29 -103 -38 -189 -39 -285 -1 -53 20 -94 28 -165
32 -86 5 -104 2 -190 -25 -52 -17 -106 -32 -120 -34 l-25 -3 -3 133 -3 132
746 0 747 0 29 29 29 29 0 159 c0 170 -10 227 -54 318 -31 63 -119 148 -183
178 -48 22 -53 22 -638 24 -324 0 -608 -2 -630 -6z m187 -266 c6 -89 30 -125
83 -125 54 0 79 38 83 126 l4 74 78 0 78 0 4 -74 c4 -88 29 -126 83 -126 54 0
79 38 83 126 l4 74 78 0 78 0 4 -74 c4 -88 29 -126 83 -126 54 0 79 37 83 127
l4 76 87 -5 c93 -6 130 -19 173 -65 40 -42 60 -99 66 -190 l5 -83 -742 0 -741
0 0 88 c0 62 6 98 19 127 21 47 80 102 119 111 15 3 32 7 37 9 6 2 40 4 76 4
l66 1 5 -75z m1155 -1419 c-6 -88 -34 -162 -74 -198 -53 -48 -56 -48 -671 -48
l-579 0 -44 23 c-29 16 -54 40 -74 72 -27 43 -30 59 -33 142 l-4 93 743 0 742
0 -6 -84z"/>
<path d="M4360 1969 c0 -165 10 -327 45 -737 24 -290 47 -551 50 -579 l6 -53
99 0 98 0 6 58 c4 31 24 280 46 552 31 389 40 546 40 733 l0 237 -195 0 -195
0 0 -211z"/>
<path d="M2130 2066 c-82 -65 -128 -160 -116 -242 l5 -42 -52 -12 c-58 -14
-77 -25 -77 -48 0 -14 141 -178 167 -195 7 -4 13 -17 13 -27 0 -25 11 -25 59
0 l39 19 4 -49 c8 -77 38 -111 158 -177 90 -50 112 -58 158 -58 35 0 52 -4 52
-13 0 -25 91 -207 118 -236 35 -37 81 -56 136 -56 35 0 46 -4 51 -19 9 -29 70
-79 109 -89 40 -12 230 11 283 33 26 11 33 11 33 2 0 -26 167 -164 230 -190
l34 -15 -44 -11 c-25 -7 -110 -34 -190 -61 -259 -88 -337 -100 -475 -76 -50 8
-109 22 -133 30 -50 18 -87 9 -97 -24 -8 -25 18 -70 40 -70 21 0 19 -12 -12
-74 -23 -47 -25 -57 -13 -71 25 -30 53 -14 83 50 16 33 30 61 32 63 1 1 34 -3
74 -10 79 -13 79 -13 39 -91 -21 -43 -12 -77 22 -77 15 0 30 21 60 80 39 78
41 80 78 80 20 0 54 4 75 9 20 5 37 8 37 6 0 -1 -11 -28 -25 -60 -20 -45 -23
-60 -14 -72 27 -32 53 -11 95 77 l42 85 155 53 c215 73 278 70 313 -13 30 -72
14 -114 -70 -191 -31 -29 -56 -57 -56 -63 0 -7 11 -23 24 -36 28 -28 40 -26
104 19 78 55 130 160 118 236 l-6 37 63 14 c87 20 87 37 3 138 -59 71 -65 82
-59 111 5 28 4 32 -13 27 -72 -22 -70 -23 -70 35 1 29 -5 67 -13 85 -12 31
-120 123 -201 172 -38 23 -117 29 -151 11 -16 -9 -24 -5 -50 25 -61 69 -99 76
-269 50 -52 -8 -94 -13 -95 -12 0 1 -20 44 -45 96 -69 145 -107 181 -194 181
-41 0 -45 2 -55 33 -6 17 -22 45 -37 60 -23 25 -152 98 -217 123 -26 10 -18
14 133 72 89 35 191 70 228 78 94 23 228 20 335 -5 98 -23 122 -19 133 25 7
27 -18 64 -44 64 -16 0 -14 8 14 81 21 56 14 82 -22 77 -21 -2 -31 -14 -54
-68 -16 -38 -33 -64 -40 -62 -7 2 -41 6 -75 9 l-62 6 25 63 c29 72 25 97 -15
92 -22 -3 -31 -14 -58 -78 l-32 -74 -72 -14 c-41 -7 -75 -11 -78 -8 -2 2 5 27
17 55 23 53 22 77 -6 88 -23 9 -39 -12 -78 -101 l-34 -79 -84 -34 c-125 -51
-256 -93 -287 -93 -54 0 -111 67 -111 130 0 44 21 78 79 132 55 51 59 62 35
96 -21 31 -54 27 -104 -12z m326 -557 c52 -28 99 -59 104 -69 18 -33 12 -88
-12 -110 -34 -31 -80 -25 -171 22 -105 55 -127 76 -127 125 0 43 6 55 35 71
37 21 77 12 171 -39z m283 -183 c20 -11 41 -42 74 -111 26 -53 47 -107 47
-120 0 -69 -53 -107 -114 -81 -32 13 -43 28 -87 118 -55 112 -58 142 -17 185
25 26 57 29 97 9z m478 -256 c38 -23 50 -59 33 -101 -18 -41 -49 -54 -168 -69
-115 -15 -142 -8 -168 42 -12 24 -12 33 -1 60 21 49 36 57 138 72 127 19 130
19 166 -4z m321 -129 c94 -73 102 -84 102 -134 0 -38 -7 -50 -37 -66 -46 -24
-77 -14 -171 59 -49 38 -92 77 -96 86 -17 45 1 99 37 114 49 20 74 11 165 -59z"/>
<path d="M2069 728 c-9 -7 -46 -50 -83 -95 -87 -106 -86 -122 4 -143 l65 -16
6 -59 c3 -33 13 -77 22 -97 55 -129 285 -245 582 -294 139 -23 388 -23 528 0
124 20 256 56 292 80 30 20 33 56 7 79 -24 22 -33 21 -123 -8 -287 -91 -669
-81 -955 27 -197 74 -282 176 -230 276 25 48 50 64 103 64 57 -1 93 19 93 52
0 43 -31 59 -107 53 -37 -3 -77 -8 -88 -12 -18 -5 -25 2 -45 47 -26 55 -45 67
-71 46z"/>
<path d="M4380 220 l0 -150 180 0 180 0 0 150 0 150 -180 0 -180 0 0 -150z"/>
</g>
</svg>
